<svg width="40" height="24" viewBox="0 0 40 24" fill="none" xmlns="http://www.w3.org/2000/svg">
<path fill-rule="evenodd" clip-rule="evenodd" d="M31.4503 12L19.9711 0.666687L8.49194 12L19.9711 23.3334L31.4503 12ZM29.6378 11.9999L19.9711 2.45604L10.3044 11.9999L19.9711 21.5438L29.6378 11.9999Z" fill="white"/>
<path fill-rule="evenodd" clip-rule="evenodd" d="M19.9712 11.9999L10.3045 2.45605L0.637817 11.9999L10.3045 21.5438L19.9712 11.9999ZM18.1586 11.9998L10.3045 4.24541L2.45032 11.9998L10.3045 19.7542L18.1586 11.9998Z" fill="white"/>
<path fill-rule="evenodd" clip-rule="evenodd" d="M39.3045 11.9999L29.6379 2.45605L19.9712 11.9999L29.6379 21.5438L39.3045 11.9999ZM37.492 11.9998L29.6379 4.24541L21.7837 11.9998L29.6379 19.7542L37.492 11.9998Z" fill="white"/>
</svg>
