<svg width="44" height="22" viewBox="0 0 44 22" fill="none" xmlns="http://www.w3.org/2000/svg">
<path d="M20.1143 13.908L12.8229 21.2414C11.8171 22.2529 10.0571 22.2529 9.05143 21.2414L0.754286 12.8966C-0.251429 11.8851 -0.251429 10.1149 0.754286 9.10345L9.05143 0.758621C10.0571 -0.252874 11.8171 -0.252874 12.8229 0.758621L20.1143 8.09195C21.12 9.10345 22.88 9.10345 23.8857 8.09195L31.1771 0.758621C32.1829 -0.252874 33.9429 -0.252874 34.9486 0.758621L43.2457 9.10345C44.2514 10.1149 44.2514 11.8851 43.2457 12.8966L34.9486 21.2414C33.9429 22.2529 32.1829 22.2529 31.1771 21.2414L23.8857 13.908C22.7543 12.8966 21.12 12.8966 20.1143 13.908Z" fill="#9201E4"/>
</svg>
