<svg width="46" height="46" viewBox="0 0 46 46" fill="none" xmlns="http://www.w3.org/2000/svg">
<path fill-rule="evenodd" clip-rule="evenodd" d="M23 45.5C10.5933 45.5 0.5 35.4067 0.5 23C0.5 10.7112 10.4978 0.620186 22.7876 0.504658L22.8724 0.500466L22.9148 0.502795L23.0028 0.5C35.4067 0.5 45.5 10.5933 45.5 23C45.5 35.4067 35.4067 45.5 23 45.5ZM26.8814 28.311C27.2727 30.0104 27.4716 31.966 27.4716 34.1219C27.4716 38.1649 26.7756 41.4994 25.5123 43.5113L25.4075 43.6776L25.6026 43.653C29.8245 43.12 33.8853 41.2404 37.0362 38.3601L37.1084 38.2944L26.8087 27.9947L26.8814 28.311ZM8.8413 38.2483L8.7705 38.1821L19.0222 27.9309L18.9477 28.2495C18.5457 29.9643 18.3416 31.9399 18.3416 34.1219C18.3416 38.1444 19.032 41.47 20.2851 43.4871L20.3899 43.6553L20.1938 43.6283C15.9919 43.0557 11.9601 41.1458 8.8413 38.2483ZM23.722 43.1862L23.8911 42.9467C24.8116 41.6452 25.795 38.6438 25.795 34.1219C25.795 29.5995 24.8116 26.5977 23.8911 25.2966L23.722 25.0571V43.1862ZM20.0186 34.1219C20.0186 29.7113 20.9773 26.7104 21.8745 25.3721L22.045 25.1177V43.1261L21.8745 42.8717C20.9773 41.5329 20.0186 38.5315 20.0186 34.1219ZM38.2944 37.1079L38.3601 37.0362C41.2357 33.8904 43.1149 29.8371 43.6511 25.6236L43.6758 25.4307L43.5104 25.5323C41.4877 26.7728 38.1742 27.4557 34.1806 27.4557C31.9828 27.4557 29.9946 27.2489 28.271 26.8413L27.9514 26.7654L38.2944 37.1079ZM7.52857 36.9137C4.7177 33.7893 2.87811 29.7798 2.34938 25.6241L2.32516 25.4307L2.49053 25.5323C4.51227 26.7724 7.82578 27.4553 11.8199 27.4553C13.8845 27.4553 15.7716 27.2713 17.4295 26.9084L17.7402 26.8404L7.59425 36.9863L7.52857 36.9137ZM25.3809 23.8916C26.695 24.8037 29.6969 25.7787 34.1801 25.7787C38.6634 25.7787 41.6652 24.8037 42.9793 23.8916L43.2234 23.722H25.1363L25.3809 23.8916ZM11.8199 25.7787C7.33665 25.7787 4.33478 24.8037 3.02065 23.8916L2.77609 23.722H20.8674L20.627 23.8911C19.3311 24.8037 16.3371 25.7787 11.8199 25.7787ZM34.1801 20.0019C29.7318 20.0019 26.7295 20.9694 25.4033 21.875L25.154 22.045H43.2057L42.9565 21.875C41.6303 20.9699 38.6279 20.0019 34.1801 20.0019ZM3.04301 21.875C4.36972 20.9694 7.37252 20.0019 11.8199 20.0019C16.3115 20.0019 19.3064 20.9699 20.6121 21.8755L20.8567 22.045H2.79379L3.04301 21.875ZM21.8759 2.93634C20.9554 4.23789 19.972 7.23975 19.972 11.7616C19.972 16.2835 20.9554 19.2854 21.8759 20.587L22.045 20.8264V2.69689L21.8759 2.93634ZM23.8925 20.511L23.722 20.7654V2.75792L23.8925 3.01227C24.7898 4.35062 25.7484 7.35155 25.7484 11.7616C25.7484 16.1717 24.7898 19.1727 23.8925 20.511ZM34.1801 18.3253C38.1509 18.3253 41.4537 19.0017 43.4797 20.2306L43.6469 20.3321L43.6199 20.1384C43.039 15.9584 41.1314 11.9466 38.2474 8.84177L38.1817 8.77096L27.9318 19.0213L28.2523 18.9449C29.9783 18.5335 31.9725 18.3253 34.1801 18.3253ZM2.37966 20.1379C2.95264 16.0171 4.82112 12.0481 7.63991 8.96335L7.70512 8.89115L17.7579 18.9435L17.4467 18.8755C15.7851 18.5098 13.8919 18.3248 11.8194 18.3248C7.84907 18.3248 4.54674 19.0012 2.51988 20.2301L2.35264 20.3317L2.37966 20.1379ZM25.5384 2.49006C26.7556 4.52112 27.4255 7.81366 27.4255 11.7616C27.4255 13.8756 27.234 15.8 26.8567 17.4812L26.7863 17.7947L36.9863 7.59425L36.9132 7.52857C33.7902 4.71863 29.7831 2.8795 25.6297 2.34984L25.4391 2.32516L25.5384 2.49006ZM8.96382 7.63991C12.0304 4.83742 15.9733 2.9722 20.0661 2.38804L20.2581 2.36102L20.1598 2.5278C18.9575 4.56304 18.2955 7.84255 18.2955 11.7616C18.2955 13.8509 18.4832 15.7557 18.8526 17.4239L18.9216 17.736L8.89161 7.70559L8.96382 7.63991Z" fill="#133878"/>
</svg>
